<?xml version="1.0" encoding="UTF-8"?>
<svg version="1.1" viewBox="0 0 2048 485" width="628" height="149" xmlns="http://www.w3.org/2000/svg">
<path transform="translate(473,138)" d="m0 0h26l20 4 19 8 12 8 10 9 8 8 10 15 7 16 4 15 1 8v25l-3 16-5 15-7 13-9 12-13 13-15 10-14 6-9 3-10 2-10 1h-19l-15-2-14-4-17-8-11-8-10-9-11-14-8-15-6-18-2-12v-27l4-20 7-16 8-13 12-14 13-10 16-9 14-5zm2 14-17 4-17 8-11 8-11 10-10 14-7 14-5 18-1 8v11l3 16 5 15 8 14 9 10 4 5 10 8 14 8 12 5 15 3h20l14-3 13-5 14-8 13-11 10-12 10-19 4-13 2-20-2-16-4-13-8-16-7-10-9-10-14-10-16-8-19-5z" fill="#FE1E63"/>
<path transform="translate(1277,138)" d="m0 0h11l4 5 17 29 19 32 35 59 10 17 12 20 6 11 2 1-1-18v-154l1-2h12l1 1v205l-1 1h-12l-7-10-16-27-15-25-17-29-9-15-39-66-9-15v185l-1 1h-11l-1-45v-154l1-5z" fill="#475CA6"/>
<path transform="translate(689,138)" d="m0 0h89l1 1v11l-1 1-76 1-15 2-12 6-7 6-7 11-3 9-1 9 3 12 6 11 7 7 10 6 11 3 51 1 13 3 11 6 10 9 7 11 4 12 1 5v19l-3 12-7 12-6 7-10 7-8 4-7 2-10 1h-96l-2-1v-11l1-2 99-1 11-4 9-7 7-8 4-8 2-6v-13l-4-12-8-11-10-7-11-4-6-1-51-1-11-3-11-6-10-10-6-10-4-11-1-6v-18l2-10 7-14 9-10 11-7 11-4z" fill="#FE2164"/>
<path transform="translate(1475,138)" d="m0 0h56l18 3 16 6 13 7 13 10 9 9 9 13 8 16 4 12 2 11v34l-4 16-5 13-8 14-11 13-10 9-14 9-13 6-19 5-14 1h-50l-1-1v-104h12v91l43-1 15-3 12-5 14-8 11-9 10-11 9-15 5-14 3-14v-20l-5-19-8-16-7-10-9-10-15-11-15-7-18-5-12-1-45-1v-12z" fill="#4459A6"/>
<path transform="translate(1764,138)" d="m0 0h14l3 4 14 40 14 38 22 61 11 30 10 27 1 6-2 1h-12l-3-2-17-47-21-57-23-63-4-10-52 143-13 35-1 1-15-1 2-9 10-29 9-24 21-58 18-49 13-36z" fill="#4359A5"/>
<path transform="translate(835,138)" d="m0 0h9l4 8 16 45 15 41 17 47 14 38 2-4 19-52 20-55 18-49 6-17 2-2h9l5 1-1 8-15 42-32 88-21 58-4 9-1 1h-13l-3-5-11-29-14-39-18-49-13-35-7-20-9-26v-3z" fill="#4359A5"/>
<path transform="translate(182,138)" d="m0 0h101l13 3 11 6 10 9 7 10 4 10 1 5v25l-4 12-6 10-9 9-10 6-11 4-7 1h-87v96l-1 1h-11l-2-1v-109l94-1 13-3 11-7 7-7 6-11 2-10-1-11-4-11-7-9-9-7-13-5-7-1-92-1v-12z" fill="#FE1D61"/>
<path transform="translate(1058,331)" d="m0 0h148l1 13-5 1h-142l-2-1z" fill="#4B5FA8"/>
<path transform="translate(1057,234)" d="m0 0h147v11l-1 1-21 1-2 1h-122l-2-5v-7z" fill="#4C5FA9"/>
<path transform="translate(1059,138)" d="m0 0h147l1 4-1 9h-148v-12z" fill="#3D4CB5"/>
<path transform="translate(1057,218)" d="m0 0h147v11h-147l-1-1v-9z" fill="#404EB5"/>
<path transform="translate(1057,253)" d="m0 0 146 1v9h-146l-1-9z" fill="#404EB5"/>
<path transform="translate(1057,185)" d="m0 0h148l1 1v6l-1 1h-148z" fill="#475BA6"/>
<path transform="translate(1057,293)" d="m0 0h148v7l-1 1h-147l-1-7z" fill="#4755B6"/>
<path transform="translate(1058,159)" d="m0 0 148 1v7l-1 1h-148v-8z" fill="#3E4EB3"/>
<path transform="translate(1058,276)" d="m0 0h116l31 1v6h-148v-6z" fill="#4958B5"/>
<path transform="translate(1057,176)" d="m0 0h148l1 1v5l-2 1h-147z" fill="#4E61AA"/>
<path transform="translate(1057,205)" d="m0 0h147l1 5-4 1-144-1z" fill="#4452B6"/>
<path transform="translate(1057,316)" d="m0 0h148v5h-148z" fill="#4353B2"/>
<path transform="translate(1181,236)" d="m0 0h23v9l-1 1-21 1h-21l-1-2-18-1-1-2 5-2h11l1-2h4l4-1h11z" fill="#3A49B4"/>
<path transform="translate(1270,307)" d="m0 0 2 4 1 4 3-3 4 4 1 27h-11z" fill="#3847B5"/>
<path transform="translate(1203,331)" d="m0 0h3l1 13-4 1-45-1-3-2 11-2 1 2 2-3 5 1v2l2-2 6-1-1 3 12-1 1-3 2-1 1-5z" fill="#3D4CB5"/>
<path transform="translate(1114,145)" d="m0 0 8 2v2l3-1v2h76v1h-130l3-2h19l8-3h8z" fill="#4056A4"/>
<path transform="translate(1104,226)" d="m0 0h32l21 2v1h-95v-1z" fill="#4359A5"/>
<path transform="translate(1057,253)" d="m0 0 146 1v1l-147 1z" fill="#848EC4"/>
<path transform="translate(1058,236)" d="m0 0 6 1 1 3 2 1 2-1-2-2h5l5 1 2 2-6 1-1 5h-13l-1-1z" fill="#3847B4"/>
<path transform="translate(1178,177)" d="m0 0h28v5l-2 1-26-2z" fill="#3A49B5"/>
<path transform="translate(1058,331)" d="m0 0 7 1 1 8h6v3l-14 1z" fill="#3A4AB3"/>
<path transform="translate(1187,186)" d="m0 0h19v6h-17v-2l-2-1z" fill="#3B4AB5"/>
<path transform="translate(1169,339)" d="m0 0 5 1v2l2-2 6-1-1 3 3 1v1h-26l-3-2 11-2 1 2z" fill="#3847B4"/>
<path transform="translate(1848,332)" d="m0 0 3 3 2 9-2 1h-12v-1l10-1-1-8z" fill="#5A67B9"/>
<path transform="translate(1057,177)" d="m0 0h10v2h-3l-1 3-6 1z" fill="#404FB4"/>
<path transform="translate(1474,139)" d="m0 0h4l-1 12h-3z" fill="#4B5AB6"/>
<path transform="translate(1058,186)" d="m0 0h5l2 6h-7z" fill="#3847B5"/>
</svg>
